<svg width="714" height="124" viewBox="0 0 714 124" fill="none" xmlns="http://www.w3.org/2000/svg">
<path d="M1.66394 1.79208H35.4559C36.6079 1.79208 37.2479 2.68809 37.2479 3.58408C37.2479 4.60809 36.4799 5.37608 35.4559 5.37608C28.2879 5.37608 27.7759 17.9201 27.7759 22.7841V70.5281C27.7759 75.3921 28.2879 87.8081 35.4559 87.8081C36.4799 87.8081 37.2479 88.7041 37.2479 89.6001C37.2479 90.6241 36.6079 91.3921 35.4559 91.3921H1.66394C0.639941 91.3921 -5.84126e-05 90.6241 -5.84126e-05 89.6001C-5.84126e-05 88.7041 0.767941 87.8081 1.66394 87.8081C8.95994 87.8081 9.47194 75.2641 9.47194 70.5281V22.7841C9.47194 18.0481 8.95994 5.37608 1.66394 5.37608C0.767941 5.37608 -5.84126e-05 4.60809 -5.84126e-05 3.58408C-5.84126e-05 2.68809 0.639941 1.79208 1.66394 1.79208ZM60.6789 1.40809C59.9109 4.39475 58.9296 7.63742 57.7349 11.1361C56.5403 14.6348 55.2176 18.1334 53.7669 21.6321C52.4016 25.0454 51.0363 28.2881 49.6709 31.3601H41.3509C41.9483 28.9708 42.5456 26.4108 43.1429 23.6801C43.8256 20.9494 44.4229 18.2188 44.9349 15.4881C45.5323 12.6721 46.0443 9.94142 46.4709 7.29609C46.9829 4.65075 47.4096 2.21875 47.7509 8.39233e-05H59.7829L60.6789 1.40809ZM90.7339 24.9601C90.9899 24.9601 91.2459 25.0881 91.5019 25.2161C92.1419 25.4721 92.5259 25.9841 92.5259 26.7521V31.3601C92.5259 32.6401 92.5259 34.1761 93.8059 33.9201C94.5739 33.7921 95.0859 33.2801 95.8539 32.7681C100.718 29.3121 106.734 26.7521 112.622 25.8561C114.798 25.6001 117.23 25.6001 119.534 25.8561C125.678 26.6241 130.926 29.9521 133.486 36.9921C138.862 31.3601 147.31 26.8801 155.502 25.8561C158.19 25.6001 160.75 25.6001 163.438 26.1121C171.502 27.6481 177.646 33.9201 177.646 47.7441V70.5281C177.646 75.2641 178.158 87.8081 185.454 87.8081C186.478 87.8081 187.246 88.7041 187.246 89.6001C187.246 90.6241 186.478 91.3921 185.454 91.3921H151.662C150.638 91.3921 149.87 90.6241 149.87 89.6001C149.87 88.7041 150.638 87.8081 151.662 87.8081C158.83 87.8081 159.342 75.7761 159.342 70.7841V47.7441C159.342 30.2081 135.15 28.9281 135.15 47.7441V70.5281C135.15 75.2641 135.534 87.8081 142.83 87.8081C143.854 87.8081 144.622 88.7041 144.622 89.6001C144.622 90.6241 143.854 91.3921 142.83 91.3921H109.038C108.014 91.3921 107.246 90.6241 107.246 89.6001C107.246 88.7041 108.014 87.8081 109.038 87.8081C116.206 87.8081 116.846 75.7761 116.846 70.7841V47.7441C116.846 31.2321 95.3419 29.0561 92.7819 44.6721C92.5259 46.2081 92.5259 48.0001 92.5259 49.6641V70.5281C92.5259 75.3921 93.0379 87.8081 100.206 87.8081C101.23 87.8081 101.998 88.7041 101.998 89.6001C101.998 90.6241 101.358 91.3921 100.206 91.3921H66.5419C65.3899 91.3921 64.7499 90.6241 64.7499 89.6001C64.7499 88.7041 65.5179 87.8081 66.5419 87.8081C73.7099 87.8081 74.2219 75.2641 74.2219 70.5281V62.3361C74.2219 60.2881 74.2219 58.7521 74.0939 56.7041C73.7099 47.8721 71.1499 42.8801 66.9259 42.6241C66.6699 42.6241 66.4139 42.6241 66.1579 42.4961C65.2619 42.3681 64.7499 41.7281 64.7499 40.8321C64.7499 39.9361 65.2619 39.2961 66.0299 39.0401C66.4139 38.9121 66.7979 39.0401 67.1819 38.9121C73.4539 38.4001 85.9979 31.2321 89.1979 25.8561C89.4539 25.3441 90.0939 24.9601 90.7339 24.9601ZM247.159 1.79208H280.951C282.103 1.79208 282.743 2.68809 282.743 3.58408C282.743 4.60809 281.975 5.37608 280.951 5.37608C273.783 5.37608 273.271 17.9201 273.271 22.7841V61.5681C273.271 79.3601 264.823 91.3921 247.799 91.3921C229.879 91.3921 224.375 84.6081 224.375 77.3121C224.375 73.0881 227.703 69.6321 232.055 69.6321C235.895 69.6321 239.223 72.5761 239.607 76.5441C240.631 82.4321 240.759 88.3201 246.519 88.3201C253.687 88.3201 254.711 72.4481 254.967 64.8961C254.967 63.4881 254.967 61.5681 254.967 59.7761V22.7841C254.967 18.0481 254.455 5.37608 247.159 5.37608C246.263 5.37608 245.367 4.60809 245.367 3.58408C245.367 2.68809 246.135 1.79208 247.159 1.79208ZM310.91 24.7041C313.47 24.4481 315.902 24.4481 318.334 24.7041C321.79 24.9601 326.142 25.9841 329.47 27.9041C334.974 30.9761 339.582 36.3521 339.582 43.1361C338.558 57.9841 322.174 57.3441 313.214 60.6721C309.502 62.0801 306.814 64.1281 305.534 66.4321C303.87 69.5041 305.534 72.1921 307.966 74.7521C316.286 84.0961 331.518 83.9681 338.046 75.6481C338.43 75.1361 338.942 74.7521 339.71 74.6241C340.606 74.6241 341.502 75.5201 341.502 76.4161C341.374 77.1841 340.862 77.8241 340.35 78.4641C329.47 94.3361 311.422 94.9761 298.366 87.5521C282.75 78.5921 279.294 58.8801 285.95 43.3921C290.302 33.4081 299.262 26.1121 310.91 24.7041ZM319.614 28.5441C317.054 27.9041 315.134 28.1601 312.446 29.0561C305.406 31.4881 300.67 40.0641 300.542 50.9441C300.414 54.6561 300.798 58.4961 301.694 62.2081C302.078 63.8721 302.718 63.8721 303.614 62.7201C305.278 60.5441 307.582 58.6241 310.526 57.2161C321.15 51.9681 327.166 44.9281 326.27 35.9681C325.63 32.5121 323.582 29.6961 319.614 28.5441ZM377.089 24.4481C393.985 24.4481 407.681 39.6801 407.681 58.3681C407.681 77.1841 393.985 92.4161 377.089 92.4161C360.193 92.4161 346.497 77.1841 346.497 58.3681C346.497 39.6801 360.193 24.4481 377.089 24.4481ZM377.089 28.0321C368.129 28.0321 364.801 41.6001 364.801 58.3681C364.801 75.1361 368.129 88.8321 377.089 88.8321C386.049 88.7041 389.377 75.1361 389.377 58.3681C389.377 41.6001 386.049 28.0321 377.089 28.0321ZM437.484 24.9601C437.74 24.9601 437.996 25.0881 438.252 25.2161C438.892 25.4721 439.276 25.9841 439.276 26.7521V31.2321C439.276 32.3841 439.276 33.9201 440.3 33.9201C440.94 34.0481 442.22 32.8961 443.116 32.3841C449.004 28.4161 456.3 25.6001 463.084 25.6001C473.196 25.6001 481.9 31.4881 481.9 47.7441V70.5281C481.9 75.2641 482.284 87.9361 489.58 87.9361C490.604 87.8081 491.372 88.7041 491.372 89.7281C491.372 90.6241 490.604 91.5201 489.58 91.5201H455.788C454.764 91.5201 453.996 90.6241 453.996 89.7281C453.996 88.7041 454.764 87.8081 455.788 87.9361C462.956 87.9361 463.596 75.7761 463.596 70.7841V47.7441C463.596 31.2321 442.092 29.1841 439.532 44.6721C439.276 46.3361 439.276 48.2561 439.276 50.1761V70.5281C439.276 75.3921 439.788 87.9361 446.956 87.9361C447.98 87.8081 448.748 88.7041 448.748 89.7281C448.748 90.6241 448.108 91.5201 446.956 91.5201H413.292C412.14 91.5201 411.5 90.6241 411.5 89.7281C411.5 88.7041 412.268 87.8081 413.292 87.9361C420.46 87.9361 420.972 75.2641 420.972 70.5281V62.3361C420.972 60.2881 420.972 58.7521 420.844 56.7041C420.46 47.8721 417.9 42.8801 413.676 42.6241C413.42 42.6241 413.164 42.6241 412.908 42.4961C412.012 42.3681 411.5 41.7281 411.5 40.8321C411.5 39.9361 412.012 39.2961 412.78 39.0401C413.164 38.9121 413.548 39.0401 413.932 38.9121C420.204 38.4001 432.748 31.2321 435.948 25.8561C436.204 25.3441 436.844 24.9601 437.484 24.9601ZM527.855 24.9601C529.519 25.2161 529.903 24.9601 530.415 23.5521C533.231 15.8721 537.199 7.04008 547.823 8.96008C550.511 9.60008 553.071 11.2641 554.095 14.0801C555.375 17.2801 552.687 21.1201 549.231 21.3761C547.439 21.5041 546.031 21.1201 544.751 20.2241C542.447 18.6881 536.687 19.0721 533.615 24.4481C532.847 25.8561 533.231 26.4961 534.767 27.1361C543.855 31.3601 549.615 39.6801 549.615 49.0241C549.615 62.4641 537.455 73.4721 522.479 73.4721C518.639 73.4721 514.799 72.7041 511.343 71.4241C509.295 70.5281 507.759 70.6561 506.607 71.1681C504.815 71.9361 503.407 73.0881 503.407 75.1361C503.407 78.8481 511.471 80.6401 526.575 84.3521C546.799 89.3441 553.711 94.2081 553.711 105.472C553.711 110.208 551.151 116.224 545.519 118.912C539.887 121.6 532.975 123.52 525.167 123.52C514.031 123.392 494.447 121.472 491.759 108.288C491.375 106.496 491.119 104.576 491.503 102.784C492.399 99.3281 495.343 96.8961 498.927 96.8961C502.639 96.8961 505.839 99.5841 506.479 103.04C506.735 104.32 506.607 105.472 506.735 106.752C507.503 116.992 514.159 119.808 525.167 119.936C544.111 119.936 555.759 107.648 523.247 100.608C502.383 96.0001 494.959 89.8561 494.959 80.7681C494.959 77.4401 496.751 72.8321 501.871 69.8881C502.639 69.5041 503.279 69.1201 504.047 68.7361C505.327 68.2241 504.943 67.7121 504.175 67.2001C498.415 62.5921 495.215 55.9361 495.215 49.0241C495.215 35.4561 507.375 24.4481 522.479 24.4481C524.271 24.4481 526.063 24.5761 527.855 24.9601ZM522.479 28.0321C515.951 28.0321 513.519 37.3761 513.519 49.0241C513.519 60.5441 515.951 69.8881 522.479 69.8881C528.879 69.8881 531.311 60.5441 531.311 49.0241C531.311 37.3761 528.879 28.0321 522.479 28.0321ZM593.289 1.79208H627.081C628.233 1.79208 628.873 2.68809 628.873 3.58408C628.873 4.60809 628.105 5.37608 627.081 5.37608C619.913 5.37608 619.401 17.9201 619.401 22.7841V70.5281C619.401 75.3921 619.913 87.8081 627.081 87.8081C628.105 87.8081 628.873 88.7041 628.873 89.6001C628.873 90.6241 628.233 91.3921 627.081 91.3921H593.289C592.265 91.3921 591.625 90.6241 591.625 89.6001C591.625 88.7041 592.393 87.8081 593.289 87.8081C600.585 87.8081 601.097 75.2641 601.097 70.5281V22.7841C601.097 18.0481 600.585 5.37608 593.289 5.37608C592.393 5.37608 591.625 4.60809 591.625 3.58408C591.625 2.68809 592.265 1.79208 593.289 1.79208ZM659.984 24.9601C660.24 24.9601 660.496 25.0881 660.752 25.2161C661.392 25.4721 661.776 25.9841 661.776 26.7521V31.2321C661.776 32.3841 661.776 33.9201 662.8 33.9201C663.44 34.0481 664.72 32.8961 665.616 32.3841C671.504 28.4161 678.8 25.6001 685.584 25.6001C695.696 25.6001 704.4 31.4881 704.4 47.7441V70.5281C704.4 75.2641 704.784 87.9361 712.08 87.9361C713.104 87.8081 713.872 88.7041 713.872 89.7281C713.872 90.6241 713.104 91.5201 712.08 91.5201H678.288C677.264 91.5201 676.496 90.6241 676.496 89.7281C676.496 88.7041 677.264 87.8081 678.288 87.9361C685.456 87.9361 686.096 75.7761 686.096 70.7841V47.7441C686.096 31.2321 664.592 29.1841 662.032 44.6721C661.776 46.3361 661.776 48.2561 661.776 50.1761V70.5281C661.776 75.3921 662.288 87.9361 669.456 87.9361C670.48 87.8081 671.248 88.7041 671.248 89.7281C671.248 90.6241 670.608 91.5201 669.456 91.5201H635.792C634.64 91.5201 634 90.6241 634 89.7281C634 88.7041 634.768 87.8081 635.792 87.9361C642.96 87.9361 643.472 75.2641 643.472 70.5281V62.3361C643.472 60.2881 643.472 58.7521 643.344 56.7041C642.96 47.8721 640.4 42.8801 636.176 42.6241C635.92 42.6241 635.664 42.6241 635.408 42.4961C634.512 42.3681 634 41.7281 634 40.8321C634 39.9361 634.512 39.2961 635.28 39.0401C635.664 38.9121 636.048 39.0401 636.432 38.9121C642.704 38.4001 655.248 31.2321 658.448 25.8561C658.704 25.3441 659.344 24.9601 659.984 24.9601Z" fill="#90DCC2"/>
</svg>
