<svg width="195" height="41" viewBox="0 0 195 41" fill="none" xmlns="http://www.w3.org/2000/svg">
<path d="M193.001 6.75196C193.854 7.2213 194.281 8.2133 194.281 9.72796C194.281 10.2826 194.228 10.9013 194.121 11.584C194.014 12.2453 193.897 12.8746 193.769 13.472L193.545 14.752L192.201 24.704C192.628 24.8106 192.809 25.0773 192.745 25.504C192.51 26.6773 191.678 27.424 190.249 27.744L189.929 27.776C189.566 27.776 189.246 27.7013 188.969 27.552C188.692 27.4026 188.574 27.168 188.617 26.848C189.513 20.3626 190.174 15.4986 190.601 12.256C190.622 12.1706 190.665 11.9253 190.729 11.52C190.814 11.1146 190.857 10.7306 190.857 10.368C190.857 9.6853 190.676 9.3333 190.313 9.31196C190.036 9.2693 189.577 9.6533 188.937 10.464C188.318 11.2533 187.977 11.6906 187.913 11.776C186.633 13.2266 185.438 14.848 184.329 16.64C183.817 19.7546 183.412 22.272 183.113 24.192L182.953 25.216C182.889 25.6213 182.59 25.9733 182.057 26.272C181.524 26.5706 181.001 26.72 180.489 26.72C180.169 26.72 179.913 26.656 179.721 26.528C179.55 26.3786 179.486 26.1653 179.529 25.888C180.084 22.624 180.521 19.9573 180.841 17.888C180.713 17.76 180.649 17.6106 180.649 17.44C180.649 17.3333 180.681 17.216 180.745 17.088C180.809 16.9813 180.862 16.8853 180.905 16.8C180.969 16.7146 181.022 16.64 181.065 16.576L182.345 8.83196C182.409 8.44796 182.697 8.1173 183.209 7.83996C183.721 7.56263 184.233 7.42396 184.745 7.42396C185.065 7.42396 185.31 7.48796 185.481 7.61596C185.652 7.74396 185.716 7.93596 185.673 8.19196C185.566 8.89596 185.417 9.80263 185.225 10.912L186.569 9.47196C187.465 8.57596 188.318 7.83996 189.129 7.26396C189.94 6.68796 190.761 6.39996 191.593 6.39996C192.126 6.39996 192.596 6.5173 193.001 6.75196Z" fill="white"/>
<path d="M179.768 1.37597C179.534 1.31197 179.299 1.27997 179.064 1.27997C178.595 1.27997 178.179 1.3973 177.816 1.63197C177.347 1.88797 177.08 2.14397 177.016 2.39997C176.739 3.40263 176.557 4.06397 176.472 4.38397V4.47997C176.472 4.58663 176.515 4.6933 176.6 4.79997C176.686 4.8853 176.781 4.9493 176.888 4.99197C177.059 5.0773 177.251 5.11997 177.464 5.11997C177.806 5.11997 178.211 5.02397 178.68 4.83197C179.171 4.61864 179.491 4.33064 179.64 3.96797C179.768 3.6053 179.95 2.9653 180.184 2.04797V1.98397C180.184 1.8773 180.141 1.77063 180.056 1.66397C179.971 1.53597 179.875 1.43997 179.768 1.37597ZM178.52 14.208C178.392 15.0613 178.147 16.608 177.784 18.848C177.443 21.0666 177.155 23.0826 176.92 24.896C176.856 25.3013 176.568 25.6533 176.056 25.952C175.565 26.2293 175.064 26.368 174.552 26.368C174.211 26.368 173.944 26.304 173.752 26.176C173.581 26.0266 173.517 25.8133 173.56 25.536C173.923 23.4026 174.307 20.9706 174.712 18.24C175.139 15.488 175.438 13.5253 175.608 12.352L176.28 7.96797C176.344 7.58397 176.632 7.2533 177.144 6.97597C177.677 6.69863 178.19 6.55997 178.68 6.55997C178.979 6.55997 179.214 6.62397 179.384 6.75197C179.555 6.87997 179.619 7.0613 179.576 7.29597L178.52 14.208Z" fill="white"/>
<path d="M165.17 22.912C166.045 21.7387 166.802 20.5013 167.442 19.2C167.997 18.1333 168.583 16.8107 169.202 15.232C169.821 13.6533 170.13 12.352 170.13 11.328C170.13 10.9867 170.087 10.72 170.002 10.528C169.362 10.5707 168.978 10.3787 168.85 9.95199C168.701 9.41866 168.541 9.15199 168.37 9.15199C168.242 9.15199 168.114 9.23732 167.986 9.40799C167.858 9.55732 167.677 9.83466 167.442 10.24C167.143 10.688 166.823 11.3067 166.482 12.096C165.778 13.5893 165.202 15.0507 164.754 16.48C164.242 17.952 163.837 19.2853 163.538 20.48C163.239 21.6747 163.09 22.816 163.09 23.904C163.09 24.3733 163.122 24.832 163.186 25.28L163.858 24.576C164.263 24.1067 164.701 23.552 165.17 22.912ZM171.922 7.80799C172.562 8.06399 173.021 8.42665 173.298 8.89599C173.575 9.36532 173.714 9.96266 173.714 10.688C173.714 11.3707 173.543 12.544 173.202 14.208C172.263 18.6027 171.495 22.6133 170.898 26.24C170.322 29.8667 169.906 33.4507 169.65 36.992C169.629 37.2907 169.586 37.5467 169.522 37.76C169.479 37.9947 169.383 38.272 169.234 38.592C168.999 39.0613 168.626 39.4773 168.114 39.84C167.623 40.224 167.154 40.416 166.706 40.416C166.301 40.416 165.991 40.2347 165.778 39.872L164.85 38.272C163.506 35.9253 162.365 34.0053 161.426 32.512C161.362 32.4267 161.33 32.32 161.33 32.192C161.33 31.8293 161.597 31.488 162.13 31.168C162.663 30.848 163.207 30.688 163.762 30.688C164.317 30.688 164.701 30.8693 164.914 31.232C165.213 31.7867 165.554 32.384 165.938 33.024L166.578 34.144C167.047 30.368 167.57 26.8053 168.146 23.456C167.165 24.8213 166.13 25.9947 165.042 26.976C163.975 27.9573 162.983 28.448 162.066 28.448C161.362 28.448 160.754 28.128 160.242 27.488C159.815 26.9547 159.602 26.1867 159.602 25.184C159.602 24.6293 159.645 24.0853 159.73 23.552C159.837 23.0187 159.997 22.2933 160.21 21.376L160.402 20.608C161.042 17.7067 161.991 14.88 163.25 12.128C163.847 10.8693 164.445 9.82399 165.042 8.99199C165.661 8.15999 166.439 7.53065 167.378 7.10399C167.954 6.82666 168.594 6.68799 169.298 6.68799C170.343 6.68799 171.143 7.03999 171.698 7.74399L171.922 7.80799Z" fill="white"/>
<path d="M157.501 6.75196C158.354 7.2213 158.781 8.2133 158.781 9.72796C158.781 10.2826 158.728 10.9013 158.621 11.584C158.514 12.2453 158.397 12.8746 158.269 13.472L158.045 14.752L156.701 24.704C157.128 24.8106 157.309 25.0773 157.245 25.504C157.01 26.6773 156.178 27.424 154.749 27.744L154.429 27.776C154.066 27.776 153.746 27.7013 153.469 27.552C153.192 27.4026 153.074 27.168 153.117 26.848C154.013 20.3626 154.674 15.4986 155.101 12.256C155.122 12.1706 155.165 11.9253 155.229 11.52C155.314 11.1146 155.357 10.7306 155.357 10.368C155.357 9.6853 155.176 9.3333 154.813 9.31196C154.536 9.2693 154.077 9.6533 153.437 10.464C152.818 11.2533 152.477 11.6906 152.413 11.776C151.133 13.2266 149.938 14.848 148.829 16.64C148.317 19.7546 147.912 22.272 147.613 24.192L147.453 25.216C147.389 25.6213 147.09 25.9733 146.557 26.272C146.024 26.5706 145.501 26.72 144.989 26.72C144.669 26.72 144.413 26.656 144.221 26.528C144.05 26.3786 143.986 26.1653 144.029 25.888C144.584 22.624 145.021 19.9573 145.341 17.888C145.213 17.76 145.149 17.6106 145.149 17.44C145.149 17.3333 145.181 17.216 145.245 17.088C145.309 16.9813 145.362 16.8853 145.405 16.8C145.469 16.7146 145.522 16.64 145.565 16.576L146.845 8.83196C146.909 8.44796 147.197 8.1173 147.709 7.83996C148.221 7.56263 148.733 7.42396 149.245 7.42396C149.565 7.42396 149.81 7.48796 149.981 7.61596C150.152 7.74396 150.216 7.93596 150.173 8.19196C150.066 8.89596 149.917 9.80263 149.725 10.912L151.069 9.47196C151.965 8.57596 152.818 7.83996 153.629 7.26396C154.44 6.68796 155.261 6.39996 156.093 6.39996C156.626 6.39996 157.096 6.5173 157.501 6.75196Z" fill="white"/>
<path d="M141.01 15.104C141.01 12.8426 139.687 11.0613 137.042 9.75998C136.38 10.3146 135.719 11.0506 135.058 11.968C134.247 13.1413 133.575 14.4533 133.042 15.904C132.828 16.48 132.626 17.2693 132.434 18.272C132.242 19.2533 132.146 20.1706 132.146 21.024C132.146 21.8986 132.263 22.6026 132.498 23.136C132.754 23.648 133.159 23.904 133.714 23.904C134.162 23.904 134.684 23.7226 135.282 23.36C136.924 22.4 138.29 21.2053 139.378 19.776C140.466 18.3466 141.01 16.7893 141.01 15.104ZM141.906 9.31198C142.674 10.0373 143.26 10.8586 143.666 11.776C144.092 12.6933 144.306 13.664 144.306 14.688C144.306 16.16 143.879 17.6533 143.026 19.168C142.45 20.192 141.607 21.2693 140.498 22.4C139.388 23.5306 138.151 24.4906 136.786 25.28C135.442 26.048 134.151 26.432 132.914 26.432C132.146 26.432 131.42 26.2613 130.738 25.92C129.287 25.1306 128.562 23.712 128.562 21.664C128.562 20.192 128.892 18.5813 129.554 16.832C130.215 15.0613 130.919 13.568 131.666 12.352C133.479 9.47198 135.388 7.65865 137.394 6.91198C137.948 6.69865 138.546 6.59198 139.186 6.59198C139.932 6.59198 140.562 6.78398 141.074 7.16798C141.586 7.53065 141.884 8.10665 141.97 8.89598V9.02398C141.97 9.08798 141.948 9.18398 141.906 9.31198Z" fill="white"/>
<path d="M121.802 9.05601C120.714 9.88801 119.829 11.232 119.146 13.088C121.237 12.2987 123.125 11.6373 124.81 11.104C124.106 10.1227 123.391 9.46134 122.666 9.12001C122.517 9.05601 122.367 9.01334 122.218 8.99201C122.09 8.97067 122.015 8.96001 121.994 8.96001C122.015 8.98134 121.994 9.00267 121.93 9.02401C121.887 9.04534 121.845 9.05601 121.802 9.05601ZM121.93 6.78401C122.271 6.69867 122.634 6.65601 123.018 6.65601C125.066 6.65601 126.922 8.03201 128.586 10.784C128.65 10.8693 128.682 10.976 128.682 11.104C128.682 11.3387 128.533 11.584 128.234 11.84C127.999 12.096 127.701 12.2987 127.338 12.448C125.205 13.3867 122.239 14.5067 118.442 15.808C118.229 16.896 118.122 18.016 118.122 19.168C118.122 19.7013 118.133 20.0853 118.154 20.32C118.197 21.28 118.389 22.112 118.73 22.816C118.837 23.0507 118.986 23.2747 119.178 23.488C119.391 23.7013 119.551 23.84 119.658 23.904C119.722 23.9467 119.829 23.968 119.978 23.968C120.127 23.968 120.298 23.9253 120.49 23.84C120.703 23.7547 120.938 23.6373 121.194 23.488C121.813 23.1253 122.389 22.7093 122.922 22.24C123.455 21.7707 124.095 21.1627 124.842 20.416C125.141 20.1173 125.642 19.968 126.346 19.968C126.73 19.968 127.05 20.032 127.306 20.16C127.583 20.2667 127.722 20.4267 127.722 20.64C127.722 20.832 127.615 21.0453 127.402 21.28C126.079 22.7093 124.725 23.9253 123.338 24.928C121.951 25.9307 120.565 26.432 119.178 26.432C118.517 26.432 117.898 26.2933 117.322 26.016C116.362 25.568 115.669 24.8533 115.242 23.872C114.815 22.8907 114.602 21.7387 114.602 20.416C114.602 19.4347 114.73 18.2827 114.986 16.96L114.73 17.024L114.474 17.12C114.154 17.2267 113.898 17.28 113.706 17.28C113.407 17.28 113.173 17.2053 113.002 17.056C112.831 16.9067 112.746 16.7147 112.746 16.48C112.746 16.2027 112.853 15.936 113.066 15.68C113.301 15.4027 113.642 15.1787 114.09 15.008L115.658 14.4C115.85 13.8027 116.138 13.024 116.522 12.064C117.119 10.7413 117.866 9.60001 118.762 8.64001C119.658 7.68001 120.714 7.06134 121.93 6.78401Z" fill="white"/>
<path d="M114.458 0.415991C114.671 0.373323 114.831 0.35199 114.938 0.35199C115.194 0.35199 115.407 0.405323 115.578 0.51199C115.77 0.618657 115.866 0.789324 115.866 1.02399C115.866 1.62132 115.194 2.12266 113.85 2.52799C112.271 2.91199 110.948 3.21066 109.882 3.42399C110.095 5.21599 110.255 6.71999 110.362 7.93599C110.468 9.13066 110.522 10.3467 110.522 11.584C110.522 12.3733 110.49 13.184 110.426 14.016C110.255 16 109.935 17.8027 109.466 19.424C108.996 21.024 108.196 22.4107 107.066 23.584C106.106 24.5867 105.071 25.3333 103.962 25.824C102.852 26.2933 101.722 26.528 100.57 26.528C98.799 26.528 97.1563 26.016 95.6417 24.992C94.127 23.968 93.0497 22.6667 92.4097 21.088C92.303 20.8533 92.3883 20.608 92.6657 20.352C92.943 20.0747 93.3057 19.8507 93.7537 19.68C94.2017 19.5093 94.6177 19.424 95.0017 19.424C95.5137 19.424 95.8337 19.5733 95.9617 19.872C96.431 21.0027 97.1137 21.984 98.0097 22.816C98.927 23.6267 99.9723 24.096 101.146 24.224C101.252 24.2453 101.412 24.256 101.626 24.256C103.866 24.256 105.423 22.3893 106.298 18.656C106.724 16.8427 106.938 14.7947 106.938 12.512C106.938 10.1867 106.682 7.32799 106.17 3.93599C105.38 3.99999 104.58 4.03199 103.77 4.03199C102.788 4.03199 101.818 3.96799 100.858 3.83999C100.452 3.77599 100.25 3.64799 100.25 3.45599C100.25 3.19999 100.58 2.89066 101.242 2.52799C101.924 2.14399 102.436 1.93066 102.778 1.88799L104.89 1.69599C107.087 1.52532 108.868 1.36532 110.234 1.21599C111.599 1.04532 113.007 0.778657 114.458 0.415991Z" fill="white"/>
<path d="M83.3668 6.592C83.2602 8.832 83.2068 10.8373 83.2068 12.608C83.2068 17.0027 83.5055 20.9173 84.1028 24.352C84.1882 24.8427 83.9962 25.2693 83.5268 25.632C83.0575 25.9733 82.5455 26.144 81.9908 26.144C81.6708 26.144 81.4042 26.0693 81.1908 25.92C80.9775 25.7707 80.8495 25.5467 80.8068 25.248C80.2522 21.1093 79.9322 17.248 79.8468 13.664C78.8228 16.096 77.5962 19.5093 76.1668 23.904C76.1455 23.9893 76.0815 24.1067 75.9748 24.256C75.7828 24.512 75.4948 24.7147 75.1108 24.864C74.7268 25.0133 74.3428 25.088 73.9588 25.088C73.6602 25.088 73.4255 25.0453 73.2548 24.96C72.9775 24.8107 72.8388 24.608 72.8388 24.352C72.8388 24.288 72.8602 24.1707 72.9028 24C72.9242 23.7653 72.9348 23.424 72.9348 22.976C72.9348 22.2293 72.8708 21.152 72.7428 19.744L72.6148 18.016C72.5295 15.9253 72.4548 14.3573 72.3908 13.312C71.3668 15.1893 70.5562 16.576 69.9588 17.472C69.4468 20.1813 68.5935 22.8053 67.3988 25.344C67.2495 25.6427 66.9295 25.8987 66.4388 26.112C65.9482 26.3253 65.4682 26.432 64.9988 26.432C64.7002 26.432 64.4548 26.3787 64.2628 26.272C64.0922 26.1653 64.0068 26.016 64.0068 25.824C64.0068 25.696 64.0388 25.5573 64.1028 25.408C65.0842 23.2747 65.8308 21.088 66.3428 18.848C66.2575 18.7627 66.2148 18.6453 66.2148 18.496C66.2148 18.2827 66.3002 18.0587 66.4708 17.824L66.5988 17.6C66.9402 15.8933 67.1108 14.08 67.1108 12.16C67.1108 11.3493 67.0788 10.5493 67.0148 9.76C66.9935 9.39734 67.2388 9.06667 67.7508 8.768C68.2628 8.46933 68.7855 8.32 69.3188 8.32C69.6175 8.32 69.8628 8.384 70.0548 8.512C70.2468 8.64 70.3535 8.82134 70.3748 9.056C70.4175 9.44 70.4602 10.0587 70.5028 10.912C70.9935 10.016 71.5162 9.17334 72.0708 8.384C72.1135 8.02134 72.3695 7.712 72.8388 7.456C73.3082 7.17867 73.7988 7.04 74.3108 7.04C74.6308 7.04 74.8975 7.11467 75.1108 7.264C75.3455 7.392 75.4735 7.60534 75.4948 7.904C75.7082 10.656 75.8575 13.1093 75.9428 15.264C77.3722 11.7653 78.7908 8.87467 80.1988 6.592C80.3482 6.35734 80.6362 6.144 81.0628 5.952C81.4895 5.76 81.9055 5.664 82.3108 5.664C82.6308 5.664 82.8868 5.73867 83.0788 5.888C83.2922 6.03734 83.3882 6.272 83.3668 6.592Z" fill="white"/>
<path d="M63.0862 0.19201C63.3635 0.170677 63.6195 0.224011 63.8542 0.35201C64.0888 0.480011 64.2062 0.661345 64.2062 0.896011L64.1422 1.18401L62.7342 4.28801C62.3502 5.09868 61.9662 5.71734 61.5822 6.14401C61.2195 6.57068 60.6862 6.78401 59.9822 6.78401C59.4062 6.78401 59.1182 6.56001 59.1182 6.11201C59.1182 5.83468 59.2142 5.50401 59.4062 5.12001C59.5982 4.71468 59.7155 4.45868 59.7582 4.35201L60.2702 3.26401C60.5902 2.56001 60.8888 1.94134 61.1662 1.40801C61.2942 1.06668 61.5395 0.789344 61.9022 0.576011C62.2862 0.362678 62.6808 0.234678 63.0862 0.19201Z" fill="white"/>
<path d="M54.9225 0.352007C55.0078 0.330674 55.1572 0.320007 55.3705 0.320007C55.6692 0.320007 55.9252 0.384007 56.1385 0.512007C56.3518 0.640008 56.4585 0.842675 56.4585 1.12001C56.4585 1.44001 56.2665 1.71734 55.8825 1.95201C55.5198 2.18667 55.1252 2.35734 54.6985 2.46401C53.1625 2.89067 51.7012 3.18934 50.3145 3.36001C49.9945 6.53867 49.4932 9.80267 48.8105 13.152C48.1492 16.48 47.3172 20.0107 46.3145 23.744C48.3198 23.7013 49.8132 23.6267 50.7945 23.52C51.4985 23.456 51.8505 23.6373 51.8505 24.064C51.8505 24.384 51.6692 24.7253 51.3065 25.088C50.9438 25.4293 50.5598 25.6213 50.1545 25.664C47.1892 26.048 44.3945 26.24 41.7705 26.24C40.3412 26.24 38.9438 26.176 37.5785 26.048C37.1092 25.984 36.8745 25.856 36.8745 25.664C36.8745 25.408 37.1838 25.088 37.8025 24.704C38.3998 24.32 38.8478 24.1173 39.1465 24.096C40.3838 23.9467 41.6638 23.8507 42.9865 23.808C44.0105 19.8613 44.8532 16.288 45.5145 13.088C46.1758 9.86667 46.6558 6.70934 46.9545 3.61601C45.2478 3.65867 43.7438 3.56267 42.4425 3.32801C41.9945 3.24268 41.7705 3.09334 41.7705 2.88001C41.7705 2.60268 42.0585 2.29334 42.6345 1.95201C43.2318 1.58934 43.6905 1.39734 44.0105 1.37601C45.2052 1.26934 46.3678 1.20534 47.4985 1.18401L49.2585 1.08801H49.4825C51.6585 0.98134 53.4718 0.736007 54.9225 0.352007Z" fill="white"/>
<path d="M23.9515 31.36C23.6955 31.36 23.4395 31.296 23.1835 31.168C22.9489 31.04 22.8315 30.8694 22.8315 30.656C22.8315 30.5494 22.8635 30.4427 22.9275 30.336C23.5249 29.2267 24.0795 28.224 24.5915 27.328L25.4235 25.824C25.6155 25.504 25.8929 25.248 26.2555 25.056C26.6395 24.8427 27.0342 24.736 27.4395 24.736C27.6955 24.736 27.9409 24.8 28.1755 24.928C28.4102 25.0347 28.5275 25.1947 28.5275 25.408C28.5275 25.5147 28.4955 25.632 28.4315 25.76C27.7062 27.1254 26.8849 28.6187 25.9675 30.24C25.7542 30.5814 25.4555 30.848 25.0715 31.04C24.7089 31.2534 24.3355 31.36 23.9515 31.36Z" fill="white"/>
<path d="M23.4869 1.37597C23.2522 1.31197 23.0176 1.27997 22.7829 1.27997C22.3136 1.27997 21.8976 1.3973 21.5349 1.63197C21.0656 1.88797 20.7989 2.14397 20.7349 2.39997C20.4576 3.40263 20.2762 4.06397 20.1909 4.38397V4.47997C20.1909 4.58663 20.2336 4.6933 20.3189 4.79997C20.4042 4.8853 20.5002 4.9493 20.6069 4.99197C20.7776 5.0773 20.9696 5.11997 21.1829 5.11997C21.5242 5.11997 21.9296 5.02397 22.3989 4.83197C22.8896 4.61864 23.2096 4.33064 23.3589 3.96797C23.4869 3.6053 23.6682 2.9653 23.9029 2.04797V1.98397C23.9029 1.8773 23.8602 1.77063 23.7749 1.66397C23.6896 1.53597 23.5936 1.43997 23.4869 1.37597ZM22.2389 14.208C22.1109 15.0613 21.8656 16.608 21.5029 18.848C21.1616 21.0666 20.8736 23.0826 20.6389 24.896C20.5749 25.3013 20.2869 25.6533 19.7749 25.952C19.2842 26.2293 18.7829 26.368 18.2709 26.368C17.9296 26.368 17.6629 26.304 17.4709 26.176C17.3002 26.0266 17.2362 25.8133 17.2789 25.536C17.6416 23.4026 18.0256 20.9706 18.4309 18.24C18.8576 15.488 19.1562 13.5253 19.3269 12.352L19.9989 7.96797C20.0629 7.58397 20.3509 7.2533 20.8629 6.97597C21.3962 6.69863 21.9082 6.55997 22.3989 6.55997C22.6976 6.55997 22.9322 6.62397 23.1029 6.75197C23.2736 6.87997 23.3376 7.0613 23.2949 7.29597L22.2389 14.208Z" fill="white"/>
<path d="M15.9168 1.12C16.0448 0.821334 16.3648 0.565334 16.8768 0.351999C17.3888 0.117333 17.8688 0 18.3168 0C18.9141 0 19.2128 0.192 19.2128 0.576C19.2128 0.725333 19.1915 0.842666 19.1488 0.927999C17.7408 4.448 16.5141 8.07467 15.4688 11.808L16.3328 11.776C17.0368 11.7547 17.3888 11.904 17.3888 12.224C17.3888 12.5227 17.1328 12.864 16.6208 13.248C16.1301 13.632 15.6715 13.8453 15.2448 13.888L14.8928 13.952C13.9755 17.4933 13.2181 21.28 12.6208 25.312C12.5568 25.7173 12.2368 26.0693 11.6608 26.368C11.0848 26.6667 10.5195 26.816 9.9648 26.816C9.66613 26.816 9.43147 26.752 9.2608 26.624C9.09013 26.496 9.01547 26.3147 9.0368 26.08C9.59147 22.112 10.3595 18.24 11.3408 14.464C9.27147 14.848 7.20213 15.36 5.1328 16C4.64213 18.304 4.13013 21.184 3.5968 24.64C3.5328 25.0453 3.2128 25.3973 2.6368 25.696C2.0608 25.9947 1.49547 26.144 0.9408 26.144C0.6208 26.144 0.375467 26.08 0.2048 25.952C0.0341333 25.824 -0.0298667 25.632 0.0128 25.376C0.4608 22.368 0.951467 19.5627 1.4848 16.96C1.05813 16.8533 0.8448 16.6187 0.8448 16.256C0.8448 16.0427 0.930133 15.8293 1.1008 15.616C1.2928 15.4027 1.55947 15.2107 1.9008 15.04C3.0528 10.0907 4.47147 5.62133 6.1568 1.632C6.2848 1.33333 6.6048 1.07733 7.1168 0.864C7.6288 0.629333 8.11947 0.511999 8.5888 0.511999C9.18613 0.511999 9.4848 0.703999 9.4848 1.088C9.4848 1.23733 9.46347 1.35467 9.4208 1.44C7.99147 5.088 6.7328 9.152 5.6448 13.632C7.67147 12.9707 9.78347 12.48 11.9808 12.16C13.1328 8.17067 14.4448 4.49067 15.9168 1.12Z" fill="white"/>
</svg>
