<svg width="411" height="126" viewBox="0 0 411 126" fill="none" xmlns="http://www.w3.org/2000/svg">
<path d="M1.66394 3.71201H39.8079C56.0639 3.84 71.8079 12.416 71.8079 29.056C71.8079 44.288 62.4639 54.656 42.3679 56.192C41.2159 56.32 39.9359 56.448 38.6559 56.448H30.2079C28.0319 56.448 27.7759 58.24 27.7759 59.904V72.448C27.7759 77.312 28.2879 89.728 35.4559 89.728C36.4799 89.728 37.2479 90.624 37.2479 91.52C37.2479 92.544 36.6079 93.312 35.4559 93.312H1.66394C0.639941 93.312 -5.84126e-05 92.544 -5.84126e-05 91.52C-5.84126e-05 90.624 0.767941 89.728 1.66394 89.728C8.95994 89.728 9.47194 77.184 9.47194 72.448V24.704C9.47194 19.968 8.95994 7.29601 1.66394 7.29601C0.767941 7.29601 -5.84126e-05 6.52801 -5.84126e-05 5.50401C-5.84126e-05 4.60801 0.639941 3.71201 1.66394 3.71201ZM30.7199 7.29601C28.6719 7.29601 27.7759 9.21601 27.7759 11.008V43.392C27.7759 50.432 29.9519 52.864 34.8159 52.864H36.6079C47.4879 52.864 51.9679 41.344 51.9679 29.056C51.9679 20.096 47.9999 7.29601 36.6079 7.29601H30.7199ZM99.3349 27.136C99.8469 26.88 100.615 26.88 101.127 27.136C101.639 27.392 102.151 27.904 102.151 28.672V34.048C102.151 37.504 102.663 38.784 104.199 36.736C104.455 36.352 104.711 35.968 105.095 35.584C108.935 30.592 114.951 27.264 120.967 27.264C124.679 27.264 131.079 29.312 132.999 34.304C133.895 36.48 133.895 38.656 132.871 40.832C131.335 43.776 128.135 45.44 125.063 45.056C123.399 44.8 121.991 44.288 120.839 43.264C118.151 41.088 117.895 38.912 114.567 37.12C109.063 34.304 103.047 41.216 102.279 52.096C102.023 54.272 102.151 55.296 102.151 57.472V72.448C102.151 77.312 102.663 89.856 109.831 89.856C110.855 89.728 111.623 90.624 111.623 91.648C111.623 92.544 110.983 93.44 109.831 93.44H76.1669C75.0149 93.44 74.3749 92.544 74.3749 91.648C74.3749 90.624 75.1429 89.728 76.1669 89.856C83.3349 89.856 83.8469 77.184 83.8469 72.448V64.256C83.8469 62.208 83.8469 60.672 83.7189 58.624C83.3349 49.792 80.7749 44.8 76.5509 44.544C76.2949 44.544 76.0389 44.544 75.7829 44.416C74.8869 44.288 74.3749 43.648 74.3749 42.752C74.3749 41.856 74.8869 41.216 75.6549 40.96C76.0389 40.832 76.4229 40.96 76.8069 40.832C82.6949 40.448 94.0869 34.048 98.0549 28.8C98.4389 28.288 98.9509 27.52 99.3349 27.136ZM169.214 26.368C186.11 26.368 199.806 41.6 199.806 60.288C199.806 79.104 186.11 94.336 169.214 94.336C152.318 94.336 138.622 79.104 138.622 60.288C138.622 41.6 152.318 26.368 169.214 26.368ZM169.214 29.952C160.254 29.952 156.926 43.52 156.926 60.288C156.926 77.056 160.254 90.752 169.214 90.752C178.174 90.624 181.502 77.056 181.502 60.288C181.502 43.52 178.174 29.952 169.214 29.952ZM220.732 7.62939e-06C226.748 7.62939e-06 231.612 4.86401 231.612 10.88C231.612 16.896 226.748 21.76 220.732 21.76C214.716 21.76 209.852 16.896 209.852 10.88C209.852 4.86401 214.716 7.62939e-06 220.732 7.62939e-06ZM229.82 26.88C230.076 26.88 230.332 27.008 230.588 27.136C231.228 27.392 231.612 27.904 231.612 28.672V90.624C231.612 104.32 230.46 125.44 207.932 125.44C195.388 125.44 189.5 118.528 189.5 111.232C189.5 107.008 192.828 103.552 197.18 103.552C201.148 103.552 204.348 106.624 204.732 110.592C205.116 113.024 204.988 115.84 205.5 118.4C205.884 120.704 207.676 122.368 210.364 122.368C215.1 122.368 217.404 118.784 217.404 112.64C217.404 105.344 213.82 102.144 213.436 92.672C213.308 91.648 213.308 90.624 213.308 89.6V64.256C213.308 62.208 213.308 60.672 213.308 58.624C212.796 49.792 210.236 44.8 206.012 44.544C205.756 44.544 205.5 44.544 205.244 44.416C204.476 44.288 203.836 43.648 203.836 42.752C203.836 41.856 204.348 41.216 205.116 40.96C205.5 40.832 205.884 40.96 206.268 40.832C212.54 40.32 225.084 33.152 228.284 27.776C228.54 27.392 228.796 27.136 229.18 27.008C229.436 26.88 229.564 26.88 229.82 26.88ZM271.285 26.624C273.845 26.368 276.277 26.368 278.709 26.624C282.165 26.88 286.517 27.904 289.845 29.824C295.349 32.896 299.957 38.272 299.957 45.056C298.933 59.904 282.549 59.264 273.589 62.592C269.877 64 267.189 66.048 265.909 68.352C264.245 71.424 265.909 74.112 268.341 76.672C276.661 86.016 291.893 85.888 298.421 77.568C298.805 77.056 299.317 76.672 300.085 76.544C300.981 76.544 301.877 77.44 301.877 78.336C301.749 79.104 301.237 79.744 300.725 80.384C289.845 96.256 271.797 96.896 258.741 89.472C243.125 80.512 239.669 60.8 246.325 45.312C250.677 35.328 259.637 28.032 271.285 26.624ZM279.989 30.464C277.429 29.824 275.509 30.08 272.821 30.976C265.781 33.408 261.045 41.984 260.917 52.864C260.789 56.576 261.173 60.416 262.069 64.128C262.453 65.792 263.093 65.792 263.989 64.64C265.653 62.464 267.957 60.544 270.901 59.136C281.525 53.888 287.541 46.848 286.645 37.888C286.005 34.432 283.957 31.616 279.989 30.464ZM331.32 27.392C335.032 26.496 339.128 26.368 342.84 26.624C345.656 26.88 348.6 27.52 351.288 28.672C359.352 31.872 365.112 39.424 362.936 48.768C362.168 52.48 359.224 55.168 355.384 55.168C352.184 55.168 349.368 53.248 348.216 50.304C347.704 48.896 347.576 47.104 347.832 45.44C348.472 41.984 350.136 40.576 350.264 36.608C350.264 34.432 349.112 32.64 347.064 31.488C344.888 30.336 342.328 30.208 339.768 30.336C331.064 31.104 324.92 40.448 324.792 52.864C324.664 61.184 326.328 70.144 332.216 76.672C340.536 86.016 355.768 85.888 362.296 77.568C362.552 77.312 362.808 76.928 363.064 76.8C363.32 76.672 363.576 76.544 363.96 76.544C364.856 76.544 365.752 77.44 365.752 78.336C365.624 79.104 365.24 79.616 364.728 80.256C353.72 96.256 335.672 97.024 322.616 89.472C307 80.512 303.544 60.8 310.2 45.312C314.04 36.48 321.464 29.696 331.32 27.392ZM390.966 9.98401C391.606 9.728 392.246 9.728 392.886 10.112C393.27 10.368 393.654 10.752 393.654 11.264C393.782 11.52 393.654 11.776 393.654 12.16V15.872C393.654 25.6 393.782 27.136 399.542 27.264H400.694C401.59 27.264 401.974 27.264 402.742 27.776C403.126 28.032 403.382 28.544 403.382 29.056C403.382 29.696 402.998 30.208 402.614 30.592C402.102 30.848 401.462 30.848 400.822 30.848H399.926C393.654 30.976 393.654 32.256 393.654 42.624V72.448C393.654 86.016 401.59 86.912 406.71 84.608C407.478 84.224 408.118 83.584 409.014 83.584C410.038 83.456 410.806 84.352 410.806 85.376C410.806 86.144 410.038 86.784 409.526 87.424C405.046 92.16 397.878 94.592 391.606 94.592C384.31 94.592 375.35 89.728 375.35 76.032V48.256C375.35 31.616 375.35 30.848 368.694 30.848C367.926 30.848 367.414 30.848 366.774 30.72C366.134 30.464 365.75 29.824 365.75 29.056C365.75 28.288 366.134 27.648 366.774 27.392C367.414 27.136 367.926 27.392 368.694 27.136C374.838 25.984 386.23 16.768 389.942 11.392C390.198 10.88 390.454 10.368 390.966 9.98401Z" fill="#90DCC2"/>
</svg>
