<svg width="846" height="284" viewBox="0 0 846 284" fill="none" xmlns="http://www.w3.org/2000/svg">
<path d="M274.897 6.6104C275.433 5.85283 276.623 6.17154 276.709 7.09587L277.641 17.1363C277.668 17.427 277.821 17.6913 278.059 17.8599L286.288 23.6878C287.046 24.2243 286.727 25.4137 285.802 25.4996L275.762 26.4321C275.471 26.4591 275.207 26.6117 275.038 26.8498L269.211 35.0789C268.674 35.8365 267.485 35.5178 267.399 34.5934L266.466 24.5529C266.439 24.2623 266.287 23.998 266.049 23.8293L257.819 18.0015C257.062 17.465 257.381 16.2756 258.305 16.1897L268.345 15.2572C268.636 15.2302 268.9 15.0776 269.069 14.8395L274.897 6.6104Z" fill="#90DCC2"/>
<path d="M212.492 176.806C213.028 176.049 214.217 176.367 214.303 177.292L215.236 187.332C215.263 187.623 215.415 187.887 215.654 188.056L223.883 193.884C224.64 194.42 224.322 195.61 223.397 195.695L213.357 196.628C213.066 196.655 212.802 196.807 212.633 197.046L206.805 205.275C206.269 206.032 205.079 205.714 204.994 204.789L204.061 194.749C204.034 194.458 203.881 194.194 203.643 194.025L195.414 188.197C194.657 187.661 194.975 186.471 195.9 186.386L205.94 185.453C206.231 185.426 206.495 185.273 206.664 185.035L212.492 176.806Z" fill="#90DCC2"/>
<path d="M806.076 206.266C806.666 205.971 807.551 205.971 808.141 206.266C808.731 206.561 809.321 207.151 809.321 208.036V214.231C809.321 218.214 809.911 219.689 811.681 217.329C811.976 216.886 812.271 216.444 812.713 216.001C817.138 210.249 824.071 206.413 831.004 206.413C835.281 206.413 842.656 208.773 844.869 214.526C845.901 217.034 845.901 219.541 844.721 222.049C842.951 225.441 839.264 227.359 835.724 226.916C833.806 226.621 832.184 226.031 830.856 224.851C827.759 222.344 827.464 219.836 823.628 217.771C817.286 214.526 810.353 222.491 809.468 235.029C809.173 237.537 809.321 238.717 809.321 241.224V258.482C809.321 264.087 809.911 278.542 818.171 278.542C819.351 278.395 820.236 279.427 820.236 280.607C820.236 281.64 819.498 282.673 818.171 282.673H779.378C778.05 282.673 777.312 281.64 777.312 280.607C777.312 279.427 778.198 278.395 779.378 278.542C787.638 278.542 788.228 263.94 788.228 258.482V249.042C788.228 246.682 788.228 244.912 788.08 242.552C787.638 232.374 784.688 226.621 779.82 226.326C779.525 226.326 779.23 226.326 778.935 226.179C777.903 226.031 777.312 225.294 777.312 224.261C777.312 223.229 777.903 222.491 778.788 222.196C779.23 222.049 779.673 222.196 780.115 222.049C786.9 221.606 800.028 214.231 804.601 208.183C805.043 207.593 805.633 206.708 806.076 206.266Z" fill="#90DCC2"/>
<path d="M734.646 205.676C737.596 205.381 740.398 205.381 743.201 205.676C747.183 205.971 752.199 207.151 756.034 209.364C762.376 212.904 767.686 219.099 767.686 226.916C766.506 244.027 747.626 243.289 737.301 247.124C733.023 248.747 729.926 251.107 728.451 253.762C726.533 257.302 728.451 260.4 731.253 263.35C740.841 274.117 758.394 273.97 765.916 264.382C766.359 263.792 766.949 263.35 767.834 263.202C768.866 263.202 769.899 264.235 769.899 265.267C769.751 266.152 769.161 266.89 768.571 267.627C756.034 285.918 735.236 286.655 720.19 278.1C702.195 267.775 698.212 245.059 705.883 227.211C710.898 215.706 721.223 207.298 734.646 205.676ZM744.676 210.101C741.726 209.364 739.513 209.659 736.416 210.691C728.303 213.494 722.845 223.376 722.698 235.914C722.55 240.192 722.993 244.617 724.026 248.894C724.468 250.812 725.206 250.812 726.238 249.484C728.156 246.977 730.811 244.764 734.203 243.142C746.446 237.094 753.379 228.981 752.346 218.656C751.609 214.674 749.248 211.429 744.676 210.101Z" fill="#90DCC2"/>
<path d="M677.887 186.501C678.625 186.206 679.362 186.206 680.1 186.648C680.542 186.943 680.985 187.386 680.985 187.976C681.132 188.271 680.985 188.566 680.985 189.008V193.286C680.985 204.496 681.132 206.266 687.77 206.413H689.097C690.13 206.413 690.572 206.413 691.457 207.003C691.9 207.298 692.195 207.888 692.195 208.478C692.195 209.216 691.752 209.806 691.31 210.249C690.72 210.544 689.982 210.544 689.245 210.544H688.212C680.985 210.691 680.985 212.166 680.985 224.114V258.482C680.985 274.117 690.13 275.15 696.03 272.495C696.915 272.052 697.653 271.315 698.685 271.315C699.865 271.167 700.75 272.2 700.75 273.38C700.75 274.265 699.865 275.002 699.275 275.74C694.113 281.197 685.852 284 678.625 284C670.217 284 659.892 278.395 659.892 262.612V230.604C659.892 211.429 659.892 210.544 652.222 210.544C651.337 210.544 650.747 210.544 650.009 210.396C649.272 210.101 648.829 209.363 648.829 208.478C648.829 207.593 649.272 206.856 650.009 206.561C650.747 206.266 651.337 206.561 652.222 206.266C659.302 204.938 672.43 194.318 676.707 188.123C677.002 187.533 677.297 186.943 677.887 186.501Z" fill="#90DCC2"/>
<path d="M625.961 186.501C626.699 186.206 627.436 186.206 628.174 186.648C628.616 186.943 629.059 187.386 629.059 187.976C629.207 188.271 629.059 188.566 629.059 189.008V193.286C629.059 204.496 629.206 206.266 635.844 206.413H637.172C638.204 206.413 638.647 206.413 639.532 207.003C639.974 207.298 640.269 207.888 640.269 208.478C640.269 209.216 639.827 209.806 639.384 210.249C638.794 210.544 638.057 210.544 637.319 210.544H636.287C629.059 210.691 629.059 212.166 629.059 224.114V258.482C629.059 274.117 638.204 275.15 644.104 272.495C644.989 272.052 645.727 271.315 646.759 271.315C647.939 271.167 648.824 272.2 648.824 273.38C648.824 274.265 647.939 275.002 647.349 275.74C642.187 281.197 633.927 284 626.699 284C618.291 284 607.966 278.395 607.966 262.612V230.604C607.966 211.429 607.966 210.544 600.296 210.544C599.411 210.544 598.821 210.544 598.083 210.396C597.346 210.101 596.903 209.363 596.903 208.478C596.903 207.593 597.346 206.856 598.083 206.561C598.821 206.266 599.411 206.561 600.296 206.266C607.376 204.938 620.504 194.318 624.781 188.123C625.076 187.533 625.371 186.943 625.961 186.501Z" fill="#90DCC2"/>
<path d="M558.702 205.676C561.652 205.381 564.455 205.381 567.258 205.676C571.24 205.971 576.255 207.151 580.09 209.364C586.433 212.904 591.743 219.099 591.743 226.916C590.563 244.027 571.683 243.289 561.357 247.124C557.08 248.747 553.982 251.107 552.507 253.762C550.59 257.302 552.507 260.4 555.31 263.35C564.897 274.117 582.45 273.97 589.973 264.382C590.416 263.792 591.006 263.35 591.891 263.202C592.923 263.202 593.956 264.235 593.956 265.267C593.808 266.152 593.218 266.89 592.628 267.627C580.09 285.918 559.292 286.655 544.247 278.1C526.252 267.775 522.269 245.059 529.939 227.211C534.954 215.706 545.28 207.298 558.702 205.676ZM568.733 210.101C565.782 209.364 563.57 209.659 560.472 210.691C552.36 213.494 546.902 223.376 546.755 235.914C546.607 240.192 547.05 244.617 548.082 248.894C548.525 250.812 549.262 250.812 550.295 249.484C552.212 246.977 554.867 244.764 558.26 243.142C570.503 237.094 577.435 228.981 576.403 218.656C575.665 214.674 573.305 211.429 568.733 210.101Z" fill="#90DCC2"/>
<path d="M468.597 179.273C470.514 179.273 472.137 179.42 474.202 179.42C490.132 180.158 506.947 185.468 506.947 204.643C506.947 213.641 499.867 223.081 486.297 227.801C500.457 230.014 514.47 236.504 514.47 254.352C514.47 273.527 500.457 282.525 474.054 282.525H426.116C424.936 282.525 424.198 281.64 424.198 280.46C424.198 279.428 425.083 278.395 426.116 278.395C434.523 278.395 435.113 263.94 435.113 258.482V203.463C435.113 198.006 434.523 183.403 426.116 183.403C425.083 183.403 424.198 182.518 424.198 181.338C424.198 180.305 424.936 179.273 426.116 179.273H466.532C467.269 179.273 467.859 179.273 468.597 179.273ZM459.599 183.403C457.239 183.403 456.206 185.616 456.206 187.681V222.786C456.206 224.556 456.501 226.769 459.009 226.769H466.384C478.774 226.769 484.084 218.656 484.084 204.643C484.084 194.171 479.512 183.403 466.384 183.403H459.599ZM459.009 230.899C456.501 230.899 456.206 232.964 456.206 234.734V258.482C456.206 264.087 456.944 278.395 468.154 278.395H474.054C487.33 278.395 491.902 265.415 491.607 254.352C491.165 237.832 482.314 230.899 466.384 230.899H459.009Z" fill="#90DCC2"/>
<path d="M362.438 174.995C362.733 174.995 363.176 174.995 363.471 175.143C364.061 175.585 364.651 176.175 364.651 177.06V258.482C364.651 263.94 365.241 278.395 373.501 278.395C374.681 278.395 375.566 279.427 375.566 280.46C375.566 281.64 374.681 282.525 373.501 282.525H350.933C347.245 282.525 343.558 279.427 343.558 277.067C337.953 281.05 331.315 283.705 323.645 283.705C299.897 283.705 293.554 265.12 293.554 245.207V245.059V244.912C293.554 224.999 302.699 206.413 323.94 206.413C330.135 206.413 335.593 207.888 340.608 210.838C342.968 212.166 343.115 209.658 343.115 207.888C342.083 199.923 339.28 195.646 335.15 195.351C334.855 195.351 334.56 195.351 334.265 195.203C333.233 195.056 332.495 194.171 332.495 193.286C332.495 192.253 333.233 191.368 334.118 191.221C334.56 191.073 335.003 191.221 335.445 191.073C342.673 190.483 357.128 182.223 360.668 176.028C360.963 175.585 361.406 175.29 361.848 175.143C362.143 174.995 362.291 174.995 362.438 174.995ZM329.84 211.871C316.417 211.871 314.647 230.456 314.647 245.059C314.647 258.187 319.515 280.017 336.625 275.445C338.985 274.707 343.558 273.085 343.558 266.152V264.53V221.311C343.41 215.264 335.445 212.609 331.757 212.019C331.167 212.019 330.43 211.871 329.84 211.871Z" fill="#90DCC2"/>
<path d="M273.859 175.143C274.449 174.848 275.039 174.995 275.481 175.143C276.219 175.585 276.661 176.175 276.661 177.06V258.482C276.661 264.087 277.251 278.542 285.512 278.542C286.692 278.395 287.577 279.427 287.577 280.608C287.577 281.64 286.839 282.673 285.512 282.673H246.718C245.391 282.673 244.653 281.64 244.653 280.608C244.653 279.427 245.538 278.395 246.718 278.542C254.979 278.542 255.569 263.94 255.569 258.482V218.066C255.569 215.706 255.569 213.936 255.421 211.576C254.979 201.398 252.028 195.646 247.161 195.351C246.866 195.351 246.571 195.351 246.276 195.203C245.243 195.056 244.653 194.171 244.653 193.286C244.653 192.253 245.243 191.516 246.128 191.221C246.571 191.073 247.013 191.221 247.456 191.073C254.684 190.483 269.139 182.223 272.826 176.028C272.974 175.585 273.416 175.29 273.859 175.143Z" fill="#90DCC2"/>
<path d="M222.815 205.971C223.11 205.971 223.405 206.118 223.7 206.266C224.437 206.561 224.88 207.151 224.88 208.036V258.482C224.88 264.087 225.47 278.542 233.73 278.542C234.91 278.395 235.795 279.427 235.795 280.607C235.795 281.64 235.057 282.673 233.73 282.673H194.937C193.609 282.673 192.872 281.64 192.872 280.607C192.872 279.427 193.757 278.395 194.937 278.542C203.197 278.542 203.787 263.94 203.787 258.482V249.042C203.787 246.682 203.787 244.912 203.639 242.552C203.197 232.374 200.247 226.621 195.379 226.326C195.084 226.326 194.789 226.326 194.494 226.179C193.462 226.031 192.872 225.294 192.872 224.261C192.872 223.229 193.462 222.491 194.347 222.196C194.789 222.049 195.232 222.196 195.674 222.049C202.902 221.459 217.357 213.199 221.045 207.003C221.34 206.413 222.077 205.971 222.815 205.971Z" fill="#90DCC2"/>
<path d="M123.471 206.413C123.913 205.971 124.798 205.823 125.536 206.266C126.126 206.561 126.716 207.151 126.716 208.036V256.712C127.011 276.182 153.119 277.952 154.594 258.187C154.741 256.859 154.741 255.384 154.741 253.909L154.594 242.552C154.004 232.374 151.054 226.621 146.334 226.326C146.039 226.326 145.744 226.326 145.449 226.326C144.416 226.031 143.679 225.294 143.679 224.261C143.679 223.229 144.416 222.491 145.301 222.196C145.744 222.049 146.186 222.196 146.629 222.049C153.561 221.606 167.427 213.789 171.557 207.593C171.999 207.003 172.147 206.413 172.884 206.118C173.474 205.971 174.064 205.971 174.654 206.266C175.244 206.561 175.834 207.151 175.834 208.036V252.139C175.982 263.645 178.637 270.135 183.357 271.167C184.094 271.315 184.832 271.315 185.569 271.462C186.307 271.757 186.897 272.495 186.897 273.38C186.897 274.117 186.454 274.855 185.864 275.15C185.274 275.445 184.684 275.445 183.947 275.592C178.047 276.625 166.394 279.575 158.871 281.935C157.986 282.23 156.954 282.82 155.921 282.377C155.184 282.082 154.741 281.345 154.741 280.607V275.445C154.741 273.675 154.299 271.315 152.234 272.79C135.713 285.475 105.77 289.015 105.623 256.712V256.564V256.417V249.042C105.623 246.682 105.623 244.912 105.475 242.552C105.033 232.374 102.083 226.621 97.2151 226.326C96.9201 226.326 96.6251 226.326 96.3301 226.179C95.2975 226.031 94.7075 225.294 94.7075 224.261C94.7075 223.229 95.2975 222.491 96.1826 222.196C96.6251 222.049 97.0676 222.196 97.5101 222.049C104.443 221.606 118.161 213.789 122.438 207.741C122.733 207.151 123.028 206.708 123.471 206.413Z" fill="#90DCC2"/>
<path d="M44.3984 179.273C46.316 179.273 47.9385 179.42 50.0035 179.42C65.9339 180.158 82.7492 185.468 82.7492 204.643C82.7492 213.641 75.6691 223.081 62.0988 227.801C76.2591 230.014 90.2719 236.504 90.2719 254.352C90.2719 273.527 76.2591 282.525 49.856 282.525H1.91754C0.737515 282.525 0 281.64 0 280.46C0 279.428 0.885018 278.395 1.91754 278.395C10.3252 278.395 10.9152 263.94 10.9152 258.482V203.463C10.9152 198.006 10.3252 183.403 1.91754 183.403C0.885018 183.403 0 182.518 0 181.338C0 180.305 0.737515 179.273 1.91754 179.273H42.3334C43.0709 179.273 43.6609 179.273 44.3984 179.273ZM35.4007 183.403C33.0407 183.403 32.0082 185.616 32.0082 187.681V222.786C32.0082 224.556 32.3032 226.769 34.8107 226.769H42.1859C54.5761 226.769 59.8862 218.656 59.8862 204.643C59.8862 194.171 55.3136 183.403 42.1859 183.403H35.4007ZM34.8107 230.899C32.3032 230.899 32.0082 232.964 32.0082 234.734V258.482C32.0082 264.087 32.7457 278.395 43.9559 278.395H49.856C63.1313 278.395 67.7039 265.415 67.4089 254.352C66.9664 237.832 58.1162 230.899 42.1859 230.899H34.8107Z" fill="#90DCC2"/>
<path d="M774.899 16.3047C775.636 16.0097 776.374 16.0097 777.111 16.4522C777.554 16.7472 777.997 17.1897 777.997 17.7798C778.144 18.0748 777.997 18.3698 777.997 18.8123V23.0899C777.997 34.3001 778.144 36.0701 784.782 36.2176H786.109C787.142 36.2176 787.584 36.2176 788.469 36.8076C788.912 37.1027 789.207 37.6927 789.207 38.2827C789.207 39.0202 788.764 39.6102 788.322 40.0527C787.732 40.3477 786.994 40.3477 786.257 40.3477H785.224C777.997 40.4952 777.997 41.9703 777.997 53.918V88.2862C777.997 103.922 787.142 104.954 793.042 102.299C793.927 101.856 794.664 101.119 795.697 101.119C796.877 100.971 797.762 102.004 797.762 103.184C797.762 104.069 796.877 104.807 796.287 105.544C791.124 111.002 782.864 113.804 775.636 113.804C767.229 113.804 756.904 108.199 756.904 92.4163V60.4081C756.904 41.2327 756.904 40.3477 749.233 40.3477C748.348 40.3477 747.758 40.3477 747.021 40.2002C746.283 39.9052 745.841 39.1677 745.841 38.2827C745.841 37.3977 746.283 36.6601 747.021 36.3651C747.758 36.0701 748.348 36.3651 749.233 36.0701C756.314 34.7426 769.441 24.1224 773.719 17.9273C774.014 17.3372 774.309 16.7472 774.899 16.3047Z" fill="#90DCC2"/>
<path d="M711.93 34.5951C726.828 34.8901 739.071 40.9378 740.988 51.263C741.431 53.7705 741.431 55.9831 740.251 58.3431C738.776 61.1457 735.826 63.2107 732.433 63.2107C729.041 63.2107 726.091 61.2932 724.616 58.4906C722.551 54.6555 723.583 50.5254 722.256 45.8054C721.223 41.8228 717.093 38.7252 710.603 38.7252C703.965 39.1677 699.098 44.3303 699.098 48.7554C699.098 57.7531 710.603 60.9982 719.6 65.5708C729.631 70.5859 742.021 77.371 742.906 88.8762C743.643 99.4965 735.826 111.592 721.37 113.657C716.798 114.247 712.668 114.099 708.095 113.657C697.18 112.329 687.15 107.757 682.872 100.529C680.807 97.1364 679.922 91.6788 681.692 87.6962C683.315 84.8937 686.117 82.9761 689.51 82.9761C692.902 82.9761 695.852 84.8937 697.327 87.6962C699.54 91.3838 698.655 95.9564 700.573 100.381C702.933 105.987 708.538 109.969 715.028 109.969C720.338 109.969 726.976 105.692 727.271 100.234C727.861 91.8263 717.093 87.8437 707.21 82.6811C695.705 76.6335 683.315 71.9134 683.315 57.6056C683.315 44.3303 694.23 35.0376 710.603 34.5951H710.75C711.045 34.5951 711.488 34.5951 711.93 34.5951Z" fill="#90DCC2"/>
<path d="M626.294 36.0702C629.097 35.9227 631.604 35.9227 634.554 36.2177C650.337 37.8402 659.777 47.7229 659.777 62.0307V88.2863C659.777 103.332 665.678 105.839 669.218 102.299C669.513 102.004 669.808 101.562 670.25 101.414C670.545 101.119 670.84 101.119 671.283 101.119C672.463 101.119 673.348 102.004 673.348 103.184C673.348 103.774 672.905 104.364 672.61 104.954C669.955 108.642 664.35 112.919 657.417 112.919C651.665 112.919 645.027 110.707 641.487 104.217C640.455 102.447 639.865 102.742 638.832 103.627C626.442 116.607 601.366 117.492 596.204 102.004C595.614 99.939 595.319 97.7265 595.319 95.3664C594.876 75.4535 618.477 74.5685 633.522 65.1283C636.62 62.6207 638.537 59.9657 638.537 55.6881C637.505 45.5104 633.964 40.0528 626.589 40.0528C621.427 40.0528 617.002 42.8553 616.707 48.903C616.559 51.853 617.149 55.2456 617.002 58.1956C616.854 60.2607 616.559 62.3257 615.527 64.2433C614.052 66.7508 611.102 68.3734 607.856 68.3734C603.874 68.3734 600.481 65.7183 599.449 62.0307C599.006 60.4082 599.006 58.4906 599.301 56.7206C600.776 45.2154 611.692 37.1027 626.294 36.0702ZM638.685 65.7183C637.947 66.6033 637.062 67.4883 636.029 68.3734C626.442 75.601 616.412 78.2561 615.969 90.0563C615.822 91.9738 615.822 93.8914 616.559 96.1039C619.804 106.724 638.832 109.232 638.685 90.0563V65.7183Z" fill="#90DCC2"/>
<path d="M593.271 9.07712C593.861 9.07712 594.304 9.07712 594.894 9.22462C595.484 9.51963 595.926 9.81463 596.221 10.5521C596.221 10.8472 596.221 11.2897 596.369 11.7322L598.286 35.6277C598.286 36.0702 598.286 36.3652 598.286 36.9552C597.991 37.6927 597.106 38.4302 596.221 38.4302C595.336 38.4302 594.599 37.8402 594.304 37.1027C594.156 36.8077 594.156 36.3652 594.009 36.0702C592.091 25.3025 584.273 13.3547 565.983 13.3547H553.298C550.938 13.3547 549.905 15.4198 549.905 17.4848V33.2676V35.6277V52.5905C549.905 54.3605 550.2 56.5731 552.708 56.5731H561.115C570.113 56.5731 572.916 53.328 574.096 50.083C574.243 49.4929 574.391 49.0504 574.538 48.4604C574.686 48.0179 574.981 47.7229 575.423 47.5754C576.013 47.2804 576.751 47.2804 577.488 47.7229C577.783 47.8704 578.226 48.3129 578.373 48.7554C578.521 49.1979 578.373 49.6404 578.373 50.083V66.7508C578.373 67.3408 578.521 67.9308 578.226 68.5208C578.078 69.2584 577.193 69.8484 576.308 69.8484C575.571 69.8484 574.833 69.4059 574.538 68.6683C574.243 68.2258 574.243 67.7833 574.096 67.3408C573.063 64.0958 570.261 60.7032 561.115 60.7032H552.708C550.2 60.7032 549.905 62.7682 549.905 64.6858V88.2862C549.905 93.8914 550.495 108.347 558.755 108.347C559.935 108.347 560.82 109.232 560.82 110.412C560.82 111.444 560.083 112.477 558.755 112.477H519.815C518.634 112.477 517.897 111.444 517.897 110.412C517.897 109.232 518.782 108.347 519.815 108.347C528.222 108.347 528.812 93.7439 528.812 88.2862V33.2676C528.812 27.81 528.222 13.3547 519.815 13.3547C518.782 13.3547 517.897 12.3222 517.897 11.2897C517.897 10.1096 518.634 9.22462 519.815 9.22462H592.681C592.829 9.22462 593.124 9.07712 593.271 9.07712Z" fill="#90DCC2"/>
<path d="M407.113 35.7751C407.408 35.7751 407.703 35.9227 407.998 36.0702C408.736 36.3652 409.178 36.9552 409.178 37.8402V43.0028C409.178 44.3303 409.178 46.1004 410.358 46.1004C411.096 46.2479 412.571 44.9203 413.603 44.3303C420.388 39.7577 428.796 36.5127 436.614 36.5127C448.266 36.5127 458.297 43.2978 458.297 62.0307V88.2862C458.297 93.7438 458.739 108.347 467.147 108.347C468.327 108.199 469.212 109.232 469.212 110.412C469.212 111.444 468.327 112.477 467.147 112.477H428.206C427.026 112.477 426.141 111.444 426.141 110.412C426.141 109.232 427.026 108.199 428.206 108.347C436.466 108.347 437.204 94.3339 437.204 88.5812V62.0307C437.204 43.0028 412.423 40.6428 409.473 58.4906C409.178 60.4082 409.178 62.6207 409.178 64.8332V88.2862C409.178 93.8913 409.768 108.347 418.028 108.347C419.208 108.199 420.093 109.232 420.093 110.412C420.093 111.444 419.356 112.477 418.028 112.477H379.235C377.907 112.477 377.17 111.444 377.17 110.412C377.17 109.232 378.055 108.199 379.235 108.347C387.495 108.347 388.085 93.7438 388.085 88.2862V78.846C388.085 76.486 388.085 74.716 387.938 72.3559C387.495 62.1782 384.545 56.4256 379.677 56.1306C379.382 56.1306 379.087 56.1306 378.792 55.9831C377.76 55.8356 377.17 55.098 377.17 54.0655C377.17 53.033 377.76 52.2955 378.645 52.0005C379.087 51.853 379.53 52.0005 379.972 51.853C387.2 51.263 401.655 43.0028 405.343 36.8077C405.638 36.2177 406.376 35.7751 407.113 35.7751Z" fill="#90DCC2"/>
<path d="M343.515 35.7752C345.433 36.0702 345.875 35.7752 346.465 34.1526C349.71 25.3024 354.283 15.1247 366.526 17.3373C369.623 18.0748 372.573 19.9923 373.753 23.2374C375.228 26.925 372.131 31.3501 368.148 31.6451C366.083 31.7926 364.46 31.3501 362.985 30.3176C360.33 28.5475 353.693 28.99 350.153 35.1852C349.268 36.8077 349.71 37.5452 351.48 38.2827C361.953 43.1503 368.591 52.738 368.591 63.5057C368.591 78.9935 354.578 91.6789 337.32 91.6789C332.895 91.6789 328.47 90.7938 324.487 89.3188C322.127 88.2863 320.357 88.4338 319.03 89.0238C316.964 89.9088 315.342 91.2364 315.342 93.5964C315.342 97.874 324.635 99.939 342.04 104.217C365.346 109.969 373.311 115.574 373.311 128.555C373.311 134.012 370.361 140.945 363.87 144.043C357.38 147.14 349.415 149.353 340.418 149.353C327.585 149.205 305.017 146.993 301.919 131.8C301.477 129.735 301.182 127.522 301.624 125.457C302.657 121.475 306.049 118.672 310.179 118.672C314.457 118.672 318.145 121.77 318.882 125.752C319.177 127.227 319.03 128.555 319.177 130.03C320.062 141.83 327.732 145.075 340.418 145.223C362.248 145.223 375.671 131.062 338.205 122.95C314.162 117.639 305.607 110.559 305.607 100.087C305.607 96.2514 307.672 90.9413 313.572 87.5488C314.457 87.1062 315.194 86.6637 316.079 86.2212C317.554 85.6312 317.112 85.0412 316.227 84.4512C309.589 79.1411 305.902 71.4709 305.902 63.5057C305.902 47.8704 319.915 35.1852 337.32 35.1852C339.385 35.1852 341.45 35.3327 343.515 35.7752ZM337.32 39.3152C329.797 39.3152 326.995 50.0829 326.995 63.5057C326.995 76.781 329.797 87.5488 337.32 87.5488C344.695 87.5488 347.498 76.781 347.498 63.5057C347.498 50.0829 344.695 39.3152 337.32 39.3152Z" fill="#90DCC2"/>
<path d="M285.544 35.7751C285.839 35.7751 286.134 35.9226 286.429 36.0701C287.167 36.3651 287.609 36.9551 287.609 37.8402V88.2862C287.609 93.8913 288.199 108.347 296.459 108.347C297.639 108.199 298.524 109.232 298.524 110.412C298.524 111.444 297.787 112.477 296.459 112.477H257.666C256.339 112.477 255.601 111.444 255.601 110.412C255.601 109.232 256.486 108.199 257.666 108.347C265.926 108.347 266.516 93.7438 266.516 88.2862V78.846C266.516 76.486 266.516 74.7159 266.369 72.3559C265.926 62.1782 262.976 56.4255 258.109 56.1305C257.814 56.1305 257.519 56.1305 257.224 55.983C256.191 55.8355 255.601 55.098 255.601 54.0655C255.601 53.033 256.191 52.2955 257.076 52.0005C257.519 51.8529 257.961 52.0005 258.404 51.853C265.631 51.2629 280.087 43.0028 283.774 36.8076C284.069 36.2176 284.807 35.7751 285.544 35.7751Z" fill="#90DCC2"/>
<path d="M217.225 34.5951C232.123 34.8901 244.365 40.9378 246.283 51.263C246.725 53.7705 246.725 55.9831 245.545 58.3431C244.07 61.1457 241.12 63.2107 237.728 63.2107C234.335 63.2107 231.385 61.2932 229.91 58.4906C227.845 54.6555 228.877 50.5254 227.55 45.8054C226.517 41.8228 222.387 38.7252 215.897 38.7252C209.26 39.1677 204.392 44.3303 204.392 48.7554C204.392 57.7531 215.897 60.9982 224.895 65.5708C234.925 70.5859 247.315 77.371 248.2 88.8762C248.938 99.4965 241.12 111.592 226.665 113.657C222.092 114.247 217.962 114.099 213.39 113.657C202.474 112.329 192.444 107.757 188.167 100.529C186.102 97.1364 185.217 91.6788 186.987 87.6962C188.609 84.8937 191.412 82.9761 194.804 82.9761C198.197 82.9761 201.147 84.8937 202.622 87.6962C204.835 91.3838 203.949 95.9564 205.867 100.381C208.227 105.987 213.832 109.969 220.322 109.969C225.632 109.969 232.27 105.692 232.565 100.234C233.155 91.8263 222.387 87.8437 212.505 82.6811C200.999 76.6335 188.609 71.9134 188.609 57.6056C188.609 44.3303 199.524 35.0376 215.897 34.5951H216.045C216.34 34.5951 216.782 34.5951 217.225 34.5951Z" fill="#90DCC2"/>
<path d="M141.995 35.4802C144.945 35.1852 147.747 35.1852 150.55 35.4802C154.533 35.7752 159.548 36.9552 163.383 39.1677C169.725 42.7078 175.036 48.9029 175.036 56.7206C173.855 73.831 154.975 73.0934 144.65 76.9285C140.372 78.551 137.275 80.9111 135.8 83.5662C133.882 87.1062 135.8 90.2038 138.602 93.1539C148.19 103.922 165.743 103.774 173.265 94.1864C173.708 93.5964 174.298 93.1539 175.183 93.0064C176.216 93.0064 177.248 94.0389 177.248 95.0714C177.101 95.9564 176.511 96.6939 175.921 97.4314C163.383 115.722 142.585 116.459 127.54 107.904C109.544 97.5789 105.562 74.8635 113.232 57.0156C118.247 45.5104 128.572 37.1027 141.995 35.4802ZM152.025 39.9053C149.075 39.1677 146.862 39.4627 143.765 40.4953C135.652 43.2978 130.195 53.1805 130.047 65.7183C129.9 69.9959 130.342 74.421 131.375 78.6986C131.817 80.6161 132.555 80.6161 133.587 79.2886C135.505 76.781 138.16 74.5685 141.552 72.9459C153.795 66.8983 160.728 58.7856 159.695 48.4604C158.958 44.4778 156.598 41.2328 152.025 39.9053Z" fill="#90DCC2"/>
<path d="M1.32753 9.22462C1.77004 9.07712 2.36005 9.22462 2.95006 9.07712H42.4809C45.1359 9.07712 47.3485 9.07712 49.856 9.22462C77.5866 11.1422 96.172 31.3501 96.172 59.6707C96.172 86.8112 82.0117 112.329 49.856 112.329H1.91754C0.737515 112.329 0 111.444 0 110.264C0 109.232 0.885018 108.199 1.91754 108.199C10.3252 108.199 10.9152 93.7439 10.9152 88.2863V33.2676C10.9152 27.81 10.3252 13.2072 1.91754 13.2072C0.885018 13.2072 0 12.3222 0 11.1422C0 10.4046 0.442509 9.51963 1.32753 9.22462ZM35.4007 13.2072C33.0407 13.2072 32.0082 15.4198 32.0082 17.4848V88.2863C32.0082 93.8914 32.7457 108.199 43.9559 108.199H49.856C65.9339 108.199 73.309 82.8286 73.309 59.6707C73.309 26.335 58.1162 13.2072 42.1859 13.2072H35.4007Z" fill="#90DCC2"/>
</svg>
